General
Unique ID                                : 210666695279391649568581242528017115392 (0x9E7CEDFF02213555D687E1A6334F6900)
Complete name                            : The.Forbidden.Play.2023.1080p.AMZN.WEB-DL.DDP5.1.H.264-Wendy.mkv
Format                                   : Matroska
Format version                           : Version 4
File size                                : 7.54 GiB
Duration                                 : 1 h 50 min
Overall bit rate                         : 9 804 kb/s
Writing application                      : mkvmerge v80.0 ('Roundabout') 64-bit
Writing library                          : libebml v1.4.4 + libmatroska v1.7.1

Video
ID                                       : 1
Format                                   : AVC
Format/Info                              : Advanced Video Codec
Format profile                           : High@L4
Format settings                          : CABAC / 4 Ref Frames
Format settings, CABAC                   : Yes
Format settings, Reference frames        : 4 frames
Codec ID                                 : V_MPEG4/ISO/AVC
Duration                                 : 1 h 50 min
Bit rate mode                            : Constant
Bit rate                                 : 9 162 kb/s
Nominal bit rate                         : 10 000 kb/s
Width                                    : 1 920 pixels
Height                                   : 1 040 pixels
Display aspect ratio                     : 1.85:1
Frame rate mode                          : Constant
Frame rate                               : 23.976 (24000/1001) FPS
Color space                              : YUV
Chroma subsampling                       : 4:2:0
Bit depth                                : 8 bits
Scan type                                : Progressive
Bits/(Pixel*Frame)                       : 0.191
Stream size                              : 7.05 GiB (93%)
Default                                  : Yes
Forced                                   : No
Color range                              : Limited
Color primaries                          : BT.709
Transfer characteristics                 : BT.709
Matrix coefficients                      : BT.709

Audio
ID                                       : 2
Format                                   : E-AC-3
Format/Info                              : Enhanced AC-3
Commercial name                          : Dolby Digital Plus
Codec ID                                 : A_EAC3
Duration                                 : 1 h 50 min
Bit rate mode                            : Constant
Bit rate                                 : 640 kb/s
Channel(s)                               : 6 channels
Channel layout                           : L R C LFE Ls Rs
Sampling rate                            : 48.0 kHz
Frame rate                               : 31.250 FPS (1536 SPF)
Compression mode                         : Lossy
Stream size                              : 504 MiB (7%)
Language                                 : Japanese
Service kind                             : Complete Main
Default                                  : Yes
Forced                                   : No

Text
ID                                       : 3
Format                                   : UTF-8
Codec ID                                 : S_TEXT/UTF8
Codec ID/Info                            : UTF-8 Plain Text
Duration                                 : 1 h 49 min
Bit rate                                 : 59 b/s
Count of elements                        : 1317
Stream size                              : 47.9 KiB (0%)
Title                                    : SDH
Language                                 : Japanese
Default                                  : No
Forced                                   : No
